<svg width="18.000000" height="18.000000" viewBox="0 0 18 18" fill="none" xmlns="http://www.w3.org/2000/svg" xmlns:xlink="http://www.w3.org/1999/xlink">
	<desc>
			Created with Pixso.
	</desc>
	<defs>
		<clipPath id="clip405_1422">
			<rect id="star" width="18.000000" height="18.000000" fill="white" fill-opacity="0"/>
		</clipPath>
		<linearGradient id="paint_linear_405_1423_0" x1="2.625489" y1="2.250063" x2="13.875488" y2="17.250061" gradientUnits="userSpaceOnUse">
			<stop stop-color="#F84119"/>
			<stop offset="1.000000" stop-color="#F89F19" stop-opacity="0.678431"/>
		</linearGradient>
	</defs>
	<rect id="star" width="18.000000" height="18.000000" fill="#FFFFFF" fill-opacity="0"/>
	<g clip-path="url(#clip405_1422)">
		<path id="Vector" d="M13.8516 16.875C13.7344 16.8755 13.6172 16.8386 13.5215 16.7695L9 13.4916L4.47852 16.7695C4.38281 16.8396 4.26562 16.8772 4.14648 16.8767C4.02734 16.8763 3.91211 16.8379 3.81445 16.7672C3.71875 16.6964 3.64844 16.5969 3.61133 16.483C3.57617 16.3693 3.57812 16.2469 3.61523 16.1339L5.37891 10.9108L0.808594 7.77661C0.710938 7.70874 0.634766 7.61108 0.595703 7.4978C0.556641 7.38452 0.554688 7.2616 0.589844 7.14685C0.625 7.03223 0.695312 6.93188 0.792969 6.86047C0.888672 6.78906 1.00586 6.75037 1.125 6.75L6.76367 6.75L8.46484 1.51355C8.50195 1.40051 8.57422 1.30188 8.66992 1.23206C8.76562 1.16211 8.88086 1.12451 9 1.12451C9.11914 1.12451 9.23438 1.16211 9.33203 1.23206C9.42773 1.30188 9.49805 1.40051 9.53516 1.51355L11.2363 6.75183L16.875 6.75183C16.9961 6.75171 17.1133 6.79016 17.209 6.86145C17.3066 6.93262 17.377 7.03308 17.4121 7.14783C17.4492 7.26257 17.4473 7.38562 17.4062 7.49915C17.3672 7.61267 17.293 7.71045 17.1934 7.77832L12.6211 10.9108L14.3848 16.1326C14.4121 16.217 14.4199 16.3073 14.4082 16.3955C14.3945 16.4838 14.3594 16.5676 14.3086 16.6401C14.2559 16.7126 14.1875 16.7719 14.1094 16.8126C14.0293 16.8535 13.9414 16.8749 13.8516 16.875Z" fill="url(#paint_linear_405_1423_0)" fill-opacity="1.000000" fill-rule="nonzero"/>
	</g>
</svg>
